
block1
burg-menu
<svg 
 xmlns="http://www.w3.org/2000/svg"
 xmlns:xlink="http://www.w3.org/1999/xlink"
 width="28px" height="17px">
<path fill-rule="evenodd"  fill="rgb(255, 255, 255)"
 d="M0.500,16.501 L0.500,14.251 L27.500,14.251 L27.500,16.501 L0.500,16.501 ZM10.953,7.032 L27.500,7.032 L27.500,9.470 L10.953,9.470 L10.953,7.032 ZM6.172,0.000 L27.500,0.000 L27.500,2.250 L6.172,2.250 L6.172,0.000 Z"/>
</svg>
<
<svg 
 xmlns="http://www.w3.org/2000/svg"
 xmlns:xlink="http://www.w3.org/1999/xlink"
 width="9px" height="9px">
<text kerning="auto" font-family="Myriad Pro" fill="rgb(0, 0, 0)" transform="matrix( 0.39063155892011, 0, 0, 0.39033481540362,-0.65946163021676, 10.4855892268069)" font-size="57.645px"><tspan font-size="57.645px" font-family="Acrom" fill="#17ECFF">&#60;&#32;</tspan></text>
</svg>
/>
<svg 
 xmlns="http://www.w3.org/2000/svg"
 xmlns:xlink="http://www.w3.org/1999/xlink"
 width="18px" height="16px">
<text kerning="auto" font-family="Myriad Pro" fill="rgb(0, 0, 0)" transform="matrix( 0.39063155892011, 0, 0, 0.39033481540362,-0.89196296653387, 15.431974885285)" font-size="57.645px"><tspan font-size="57.645px" font-family="Acrom" fill="#17ECFF">&#47;&#62;</tspan></text>
</svg>
icons
<svg 
 xmlns="http://www.w3.org/2000/svg"
 xmlns:xlink="http://www.w3.org/1999/xlink"
 width="10px" height="9px">
<path fill-rule="evenodd"  fill="rgb(255, 255, 255)"
 d="M9.695,0.955 C9.339,1.182 8.945,1.347 8.525,1.437 C8.189,1.051 7.711,0.810 7.181,0.810 C6.164,0.810 5.340,1.698 5.340,2.793 C5.340,2.947 5.356,3.100 5.388,3.244 C3.857,3.162 2.501,2.372 1.592,1.172 C1.434,1.465 1.344,1.805 1.344,2.169 C1.344,2.857 1.669,3.464 2.162,3.818 C1.861,3.809 1.577,3.719 1.328,3.571 L1.328,3.595 C1.328,4.556 1.963,5.356 2.805,5.539 C2.651,5.584 2.488,5.608 2.320,5.608 C2.201,5.608 2.086,5.595 1.973,5.573 C2.208,6.360 2.888,6.932 3.693,6.949 C3.063,7.481 2.269,7.798 1.407,7.798 C1.258,7.798 1.111,7.788 0.967,7.771 C1.782,8.334 2.750,8.661 3.790,8.661 C7.176,8.661 9.028,5.641 9.028,3.021 L9.022,2.764 C9.383,2.486 9.696,2.137 9.943,1.740 C9.612,1.896 9.258,2.004 8.885,2.051 C9.266,1.806 9.557,1.417 9.695,0.955 Z"/>
</svg>
<svg 
 xmlns="http://www.w3.org/2000/svg"
 xmlns:xlink="http://www.w3.org/1999/xlink"
 width="7px" height="11px">
<path fill-rule="evenodd"  fill="rgb(255, 255, 255)"
 d="M5.826,0.691 L4.615,0.689 C3.255,0.689 2.376,1.609 2.376,3.035 L2.376,4.116 L1.158,4.116 C1.053,4.116 0.968,4.204 0.968,4.311 L0.968,5.879 C0.968,5.986 1.053,6.073 1.158,6.073 L2.376,6.073 L2.376,10.027 C2.376,10.135 2.461,10.222 2.566,10.222 L4.155,10.222 C4.260,10.222 4.345,10.135 4.345,10.027 L4.345,6.073 L5.769,6.073 C5.874,6.073 5.959,5.986 5.959,5.879 L5.960,4.311 C5.960,4.259 5.940,4.210 5.904,4.173 C5.868,4.137 5.820,4.116 5.769,4.116 L4.345,4.116 L4.345,3.200 C4.345,2.759 4.448,2.535 5.010,2.535 L5.826,2.535 C5.931,2.535 6.017,2.448 6.017,2.341 L6.017,0.885 C6.017,0.778 5.931,0.691 5.826,0.691 Z"/>
</svg>
block-10
<svg 
 xmlns="http://www.w3.org/2000/svg"
 xmlns:xlink="http://www.w3.org/1999/xlink"
 width="16.344px" height="24.345px">
<path fill-rule="evenodd"  stroke="rgb(0, 0, 0)" stroke-width="1.563px" stroke-linecap="butt" stroke-linejoin="miter" fill="none"
 d="M13.334,1.683 L1.760,21.454 "/>
</svg>